#!OML:ASF F:\VICON\USERDATA\INSTALL\rory3\rory3.ASF
:FULLY-SPECIFIED
:DEGREES
375
root 1.25953 18.2822 1.41718 179.921 29.3032 178.845
lowerback 10.651 0.609596 -0.34195
upperback 0.685042 0.871709 0.667946
thorax -5.2754 0.472853 0.756928
lowerneck -21.535 -5.9701 -11.8507
upperneck 30.0977 -5.7526 7.16318
head 14.6116 -2.51397 3.96178
rclavicle 4.17448e-015 -1.74931e-014
rhumerus -33.5719 -7.95301 -82.5054
rradius 30.0098
rwrist 7.04746
rhand -15.5724 8.874
rfingers 7.12502
rthumb 10.6127 -20.838
lclavicle 4.17448e-015 -1.74931e-014
lhumerus -37.1018 6.19425 82.1265
lradius 41.6802
lwrist -3.16507
lhand -18.4024 23.8552
lfingers 7.12502
lthumb 7.88194 53.6882
rfemur -6.33273 -14.7554 22.8995
rtibia 22.2362
rfoot -12.8357 -33.4761
rtoes 26.4773
lfemur -4.17854 11.5868 -17.7015
ltibia 21.537
lfoot -4.4834 13.1679
ltoes -8.88925
376
root 1.24253 18.2805 1.39812 179.989 28.2227 178.853
lowerback 10.5793 0.550507 -0.357359
upperback 0.618124 0.790627 0.694017
thorax -5.30475 0.4328 0.805467
lowerneck -21.4886 -5.95069 -11.8059
upperneck 30.0444 -5.72795 7.12929
head 14.5712 -2.50075 3.94345
rclavicle -1.14301e-014 -1.15295e-014
rhumerus -33.7273 -7.91681 -82.3955
rradius 30.1333
rwrist 6.9806
rhand -15.3341 9.09286
rfingers 7.12502
rthumb 10.8425 -20.6072
lclavicle -1.14301e-014 -1.15295e-014
lhumerus -37.1907 6.23803 82.1246
lradius 41.4518
lwrist -2.86951
lhand -18.1114 24.2096
lfingers 7.12502
lthumb 8.16278 54.0319
rfemur -6.48608 -15.2618 22.8064
rtibia 22.562
rfoot -13.245 -33.8768
rtoes 27.0934
lfemur -3.89408 11.2977 -17.7633
ltibia 20.6155
lfoot -4.45479 12.3557
ltoes -9.81537
377
root 1.22139 18.2752 1.37688 179.977 27.1955 178.861
lowerback 10.5567 0.524064 -0.253163
upperback 0.589098 0.765243 0.657971
thorax -5.32021 0.417146 0.712976
lowerneck -21.3876 -5.94147 -11.7173
upperneck 29.9754 -5.75285 7.13543
head 14.5175 -2.49756 3.92496
rclavicle -5.76476e-015 5.56597e-015
rhumerus -33.8563 -7.95753 -82.3112
rradius 30.1923
rwrist 6.92717
rhand -15.3752 8.91229
rfingers 7.12502
rthumb 10.8028 -20.7899
lclavicle -5.76476e-015 5.56597e-015
lhumerus -37.2629 6.19017 82.1032
lradius 41.1845
lwrist -2.73954
lhand -17.5244 25.3
lfingers 7.12502
lthumb 8.72934 55.0995
rfemur -6.54735 -15.6694 22.6857
rtibia 22.9246
rfoot -13.8635 -34.29
rtoes 27.9515
lfemur -3.48143 10.9762 -17.8444
ltibia 19.6165
lfoot -4.44557 11.9473
ltoes -11.1564
378
root 1.19898 18.2695 1.35563 179.965 26.3144 178.813
lowerback 10.457 0.565359 -0.214274
upperback 0.612905 0.823246 0.625403
thorax -5.23923 0.444476 0.649398
lowerneck -21.4423 -6.03156 -11.8118
upperneck 30.0459 -5.8789 7.27203
head 14.5868 -2.53819 3.9778
rclavicle 2.54444e-014 6.36111e-015
rhumerus -33.854 -8.00358 -82.2404
rradius 30.2165
rwrist 6.77221
rhand -15.4259 8.69912
rfingers 7.12502
rthumb 10.7539 -21.0056
lclavicle 2.54444e-014 6.36111e-015
lhumerus -37.2666 6.21926 82.069
lradius 41.0561
lwrist -2.75995
lhand -17.2271 25.972
lfingers 7.12502
lthumb 9.01625 55.7593
rfemur -6.66044 -15.9628 22.5274
rtibia 23.3316
rfoot -14.5201 -34.66
rtoes 28.9341
lfemur -3.05353 10.7026 -17.9989
ltibia 18.5832
lfoot -4.57647 11.8417
ltoes -10.9756
379
root 1.17566 18.266 1.33741 179.984 25.5109 178.709
lowerback 10.3512 0.649391 -0.268214
upperback 0.607982 0.92524 0.583553
thorax -5.18667 0.495035 0.622177
lowerneck -21.4382 -6.15639 -11.9213
upperneck 30.0327 -6.06004 7.40583
head 14.6138 -2.60669 4.01778
rclavicle 1.16289e-014 -8.74653e-015
rhumerus -33.8943 -8.09008 -82.1438
rradius 30.301
rwrist 6.58099
rhand -15.1795 8.59837
rfingers 7.12502
rthumb 10.9917 -21.0939
lclavicle 1.16289e-014 -8.74653e-015
lhumerus -37.2149 6.14937 82.0488
lradius 40.9114
lwrist -2.58224
lhand -16.7817 26.3457
lfingers 7.12502
lthumb 9.44598 56.114
rfemur -6.87213 -16.1402 22.3482
rtibia 23.7536
rfoot -14.9119 -35.1446
rtoes 29.4846
lfemur -2.68822 10.4272 -18.2287
ltibia 17.5816
lfoot -4.59292 11.684
ltoes -10.6644
380
root 1.14979 18.2632 1.31696 179.955 24.6257 178.451
lowerback 10.2426 0.676281 -0.461495
upperback 0.584842 0.932605 0.509805
thorax -5.15196 0.501443 0.6542
lowerneck -21.5133 -6.20836 -11.91
upperneck 30.0764 -6.11953 7.38989
head 14.6568 -2.62898 3.99925
rclavicle -3.67255e-014 1.31198e-014
rhumerus -33.9364 -8.14654 -82.0559
rradius 30.3596
rwrist 6.46405
rhand -14.9412 8.69313
rfingers 7.12502
rthumb 11.2215 -20.9868
lclavicle -3.67255e-014 1.31198e-014
lhumerus -37.1996 6.07365 82.0615
lradius 40.7177
lwrist -2.31128
lhand -16.7057 26.525
lfingers 7.12502
lthumb 9.5193 56.2899
rfemur -7.07109 -16.412 21.9872
rtibia 24.1474
rfoot -15.1837 -35.5999
rtoes 29.8396
lfemur -2.39659 10.1139 -18.6521
ltibia 16.6676
lfoot -4.41211 11.296
ltoes -11.3565
381
root 1.12257 18.2594 1.29379 179.925 23.6765 178.251
lowerback 10.1801 0.640697 -0.596773
upperback 0.510747 0.86419 0.464744
thorax -5.19482 0.469264 0.693682
lowerneck -21.397 -6.17718 -11.8947
upperneck 30.0567 -6.07695 7.38201
head 14.6161 -2.60678 4.00306
rclavicle 1.8487e-014 -7.15625e-015
rhumerus -34.1254 -8.01125 -81.9964
rradius 30.4293
rwrist 6.4393
rhand -14.8687 8.72185
rfingers 7.12502
rthumb 11.2913 -20.9542
lclavicle 1.8487e-014 -7.15625e-015
lhumerus -37.355 6.19373 82.0349
lradius 40.518
lwrist -2.42207
lhand -16.7407 26.6763
lfingers 7.12502
lthumb 9.4855 56.4429
rfemur -7.17981 -16.7564 21.6474
rtibia 24.4848
rfoot -15.62 -35.983
rtoes 30.378
lfemur -2.12505 9.7556 -19.035
ltibia 15.865
lfoot -4.29498 10.9123
ltoes -11.2726
382
root 1.0947 18.2569 1.26976 179.971 22.7571 178.102
lowerback 10.0361 0.620021 -0.680109
upperback 0.449606 0.823369 0.442467
thorax -5.17828 0.449639 0.724535
lowerneck -21.1675 -6.12339 -11.8764
upperneck 29.8662 -6.02324 7.38037
head 14.4728 -2.58279 4.00426
rclavicle 3.91606e-014 -5.1684e-015
rhumerus -34.2844 -7.77141 -81.9542
rradius 30.4654
rwrist 6.39144
rhand -15.036 8.60483
rfingers 7.12502
rthumb 11.13 -21.08
lclavicle 3.91606e-014 -5.1684e-015
lhumerus -37.4205 6.33948 82.0413
lradius 40.2723
lwrist -2.64262
lhand -16.572 26.9841
lfingers 7.12502
lthumb 9.64834 56.7431
rfemur -7.31304 -16.9927 21.3747
rtibia 24.7656
rfoot -16.1732 -36.4467
rtoes 30.9079
lfemur -1.95601 9.29595 -19.3996
ltibia 15.1962
lfoot -4.23986 10.8543
ltoes -10.4533
383
root 1.06575 18.2527 1.24858 179.997 21.8046 178.007
lowerback 9.95108 0.582736 -0.769388
upperback 0.440926 0.765389 0.474346
thorax -5.14023 0.423279 0.817163
lowerneck -21.2325 -6.10641 -11.8382
upperneck 29.8811 -5.95443 7.24983
head 14.4784 -2.5643 3.95658
rclavicle 9.0447e-015 -7.15625e-015
rhumerus -34.254 -7.62877 -81.8209
rradius 30.4197
rwrist 6.45168
rhand -15.0434 8.70975
rfingers 7.12502
rthumb 11.1229 -20.9755
lclavicle 9.0447e-015 -7.15625e-015
lhumerus -37.3941 6.45635 82.129
lradius 40.0238
lwrist -2.63741
lhand -16.6598 26.785
lfingers 7.12502
lthumb 9.56359 56.5479
rfemur -7.3842 -17.2283 21.1447
rtibia 24.9774
rfoot -16.7318 -36.8906
rtoes 31.6248
lfemur -1.83734 8.79524 -19.7019
ltibia 14.6888
lfoot -4.13664 10.7908
ltoes -10.0673
384
root 1.03674 18.2472 1.22884 180.044 20.8857 178.048
lowerback 9.97519 0.552514 -0.799
upperback 0.358302 0.724643 0.567214
thorax -5.24115 0.404848 0.936048
lowerneck -21.1867 -6.10165 -11.9561
upperneck 29.9536 -5.89134 7.25045
head 14.499 -2.54573 3.994
rclavicle 3.08116e-015 -3.97569e-015
rhumerus -34.3006 -7.42876 -81.6863
rradius 30.4236
rwrist 6.45675
rhand -14.9095 8.62481
rfingers 7.12502
rthumb 11.2521 -21.0534
lclavicle 3.08116e-015 -3.97569e-015
lhumerus -37.5696 6.61477 82.1916
lradius 39.8177
lwrist -2.7582
lhand -16.7423 26.4455
lfingers 7.12502
lthumb 9.48396 56.2121
rfemur -7.42015 -17.39 21.0657
rtibia 25.1591
rfoot -17.1492 -37.3289
rtoes 32.1327
lfemur -1.7149 8.27718 -19.8654
ltibia 14.2097
lfoot -4.05548 10.6096
ltoes -10.7898
385
root 1.00749 18.2455 1.20913 180.063 20.0258 178.164
lowerback 10.0685 0.553413 -0.728276
upperback 0.281341 0.735726 0.62961
thorax -5.37452 0.409628 0.958708
lowerneck -20.9758 -6.09625 -12.0094
upperneck 29.85 -5.88924 7.28988
head 14.4108 -2.54388 4.01855
rclavicle -2.03754e-015 1.19271e-014
rhumerus -34.3813 -7.26728 -81.6585
rradius 30.4151
rwrist 6.34747
rhand -15.0514 8.32134
rfingers 7.12502
rthumb 11.1151 -21.3643
lclavicle -2.03754e-015 1.19271e-014
lhumerus -37.6976 6.67972 82.1922
lradius 39.6171
lwrist -2.92628
lhand -16.5467 26.4877
lfingers 7.12502
lthumb 9.6727 56.2456
rfemur -7.41167 -17.4948 21.0629
rtibia 25.3522
rfoot -17.3426 -37.8524
rtoes 32.3641
lfemur -1.53912 7.74435 -19.9478
ltibia 13.7132
lfoot -3.98147 10.5194
ltoes -10.6325
